<svg width="20" height="20" viewBox="0 0 16 17" fill="none" xmlns="http://www.w3.org/2000/svg">
<path d="M8 0.501709C9.06087 0.501709 10.0783 0.923136 10.8284 1.67328C11.5786 2.42343 12 3.44084 12 4.50171C12 5.56257 11.5786 6.57999 10.8284 7.33014C10.0783 8.08028 9.06087 8.50171 8 8.50171C6.93913 8.50171 5.92172 8.08028 5.17157 7.33014C4.42143 6.57999 4 5.56257 4 4.50171C4 3.44084 4.42143 2.42343 5.17157 1.67328C5.92172 0.923136 6.93913 0.501709 8 0.501709ZM8 2.50171C7.46957 2.50171 6.96086 2.71242 6.58579 3.0875C6.21071 3.46257 6 3.97128 6 4.50171C6 5.03214 6.21071 5.54085 6.58579 5.91592C6.96086 6.291 7.46957 6.50171 8 6.50171C8.53043 6.50171 9.03914 6.291 9.41421 5.91592C9.78929 5.54085 10 5.03214 10 4.50171C10 3.97128 9.78929 3.46257 9.41421 3.0875C9.03914 2.71242 8.53043 2.50171 8 2.50171ZM8 9.50171C10.67 9.50171 16 10.8317 16 13.5017V16.5017H0V13.5017C0 10.8317 5.33 9.50171 8 9.50171ZM8 11.4017C5.03 11.4017 1.9 12.8617 1.9 13.5017V14.6017H14.1V13.5017C14.1 12.8617 10.97 11.4017 8 11.4017Z" fill="white"/>
</svg>
