<svg width="20" height="20" viewBox="0 0 24 25" fill="none" xmlns="http://www.w3.org/2000/svg">
<path d="M13.8375 3.01123H6.48749C6.00015 3.01123 5.53278 3.20482 5.18818 3.54942C4.84358 3.89402 4.64999 4.3614 4.64999 4.84873V19.5487C4.64999 20.0361 4.84358 20.5034 5.18818 20.848C5.53278 21.1926 6.00015 21.3862 6.48749 21.3862H17.5125C17.9998 21.3862 18.4672 21.1926 18.8118 20.848C19.1564 20.5034 19.35 20.0361 19.35 19.5487V8.52373L13.8375 3.01123Z" stroke="white" stroke-width="2" stroke-linecap="round" stroke-linejoin="round"/>
<path d="M15.675 16.7925H8.32504" stroke="white" stroke-width="2" stroke-linecap="round" stroke-linejoin="round"/>
<path d="M15.675 13.1174H8.32504" stroke="white" stroke-width="2" stroke-linecap="round" stroke-linejoin="round"/>
<path d="M10.1625 9.44238H9.24379H8.32504" stroke="white" stroke-width="2" stroke-linecap="round" stroke-linejoin="round"/>
<path d="M13.8375 3.01123V8.52373H19.35" stroke="white" stroke-width="2" stroke-linecap="round" stroke-linejoin="round"/>
</svg>
