<svg width="20" height="20" viewBox="0 0 24 25" fill="none" xmlns="http://www.w3.org/2000/svg">
<path d="M7.5 1.92505C7.69891 1.92505 7.88968 2.00407 8.03033 2.14472C8.17098 2.28537 8.25 2.47614 8.25 2.67505V3.42505H11.25V2.67505C11.25 2.47614 11.329 2.28537 11.4697 2.14472C11.6103 2.00407 11.8011 1.92505 12 1.92505C12.1989 1.92505 12.3897 2.00407 12.5303 2.14472C12.671 2.28537 12.75 2.47614 12.75 2.67505V3.42505H15.75V2.67505C15.75 2.47614 15.829 2.28537 15.9697 2.14472C16.1103 2.00407 16.3011 1.92505 16.5 1.92505C16.6989 1.92505 16.8897 2.00407 17.0303 2.14472C17.171 2.28537 17.25 2.47614 17.25 2.67505V3.42505C17.8467 3.42505 18.419 3.6621 18.841 4.08406C19.2629 4.50602 19.5 5.07831 19.5 5.67505V9.47905C18.9622 9.57256 18.4508 9.78023 18 10.088V5.67505C18 5.47614 17.921 5.28537 17.7803 5.14472C17.6397 5.00407 17.4489 4.92505 17.25 4.92505H6.75C6.55109 4.92505 6.36032 5.00407 6.21967 5.14472C6.07902 5.28537 6 5.47614 6 5.67505V20.675C6 20.874 6.07902 21.0647 6.21967 21.2054C6.36032 21.346 6.55109 21.425 6.75 21.425H9.0705V21.428C8.94256 21.925 8.97833 22.45 9.1725 22.925H6.75C6.15326 22.925 5.58097 22.688 5.15901 22.266C4.73705 21.8441 4.5 21.2718 4.5 20.675V5.67505C4.5 5.07831 4.73705 4.50602 5.15901 4.08406C5.58097 3.6621 6.15326 3.42505 6.75 3.42505V2.67505C6.75 2.47614 6.82902 2.28537 6.96967 2.14472C7.11032 2.00407 7.30109 1.92505 7.5 1.92505ZM15 12.425C15.1605 12.425 15.309 12.476 15.432 12.5615L14.067 13.925H9C8.80109 13.925 8.61032 13.846 8.46967 13.7054C8.32902 13.5647 8.25 13.374 8.25 13.175C8.25 12.9761 8.32902 12.7854 8.46967 12.6447C8.61032 12.5041 8.80109 12.425 9 12.425H15ZM10.494 17.5775C10.4703 17.397 10.3818 17.2312 10.2449 17.1112C10.108 16.9911 9.93209 16.925 9.75 16.925H9C8.80109 16.925 8.61032 17.0041 8.46967 17.1447C8.32902 17.2854 8.25 17.4761 8.25 17.675C8.25 17.874 8.32902 18.0647 8.46967 18.2054C8.61032 18.346 8.80109 18.425 9 18.425H9.75C9.83 18.4252 9.90951 18.4126 9.9855 18.3875C10.131 18.104 10.3005 17.8325 10.494 17.5775ZM9 7.92505C8.80109 7.92505 8.61032 8.00407 8.46967 8.14472C8.32902 8.28537 8.25 8.47614 8.25 8.67505C8.25 8.87396 8.32902 9.06473 8.46967 9.20538C8.61032 9.34603 8.80109 9.42505 9 9.42505H15C15.1989 9.42505 15.3897 9.34603 15.5303 9.20538C15.671 9.06473 15.75 8.87396 15.75 8.67505C15.75 8.47614 15.671 8.28537 15.5303 8.14472C15.3897 8.00407 15.1989 7.92505 15 7.92505H9ZM18.507 11.6075C18.946 11.1685 19.5414 10.9219 20.1623 10.9219C20.7831 10.9219 21.3785 11.1685 21.8175 11.6075C22.2565 12.0465 22.5031 12.642 22.5031 13.2628C22.5031 13.8836 22.2565 14.479 21.8175 14.918L15.384 21.35C14.8503 21.8842 14.1815 22.2632 13.449 22.4465L11.6325 22.901C11.4791 22.9395 11.3184 22.9375 11.1661 22.8954C11.0137 22.8532 10.8748 22.7723 10.763 22.6605C10.6513 22.5487 10.5703 22.4099 10.5282 22.2575C10.486 22.1051 10.4841 21.9444 10.5225 21.791L10.9785 19.976C11.1615 19.2425 11.5395 18.5735 12.0735 18.041L18.507 11.6075Z" fill="white"/>
</svg>
