<svg width="20" height="20" viewBox="0 0 24 25" fill="none" xmlns="http://www.w3.org/2000/svg">
<path d="M18 8.34839C18 6.75709 17.3679 5.23097 16.2426 4.10575C15.1174 2.98053 13.5913 2.34839 12 2.34839C10.4087 2.34839 8.88258 2.98053 7.75736 4.10575C6.63214 5.23097 6 6.75709 6 8.34839C6 15.3484 3 17.3484 3 17.3484H21C21 17.3484 18 15.3484 18 8.34839Z" stroke="white" stroke-width="2" stroke-linecap="round" stroke-linejoin="round"/>
<path d="M13.73 21.3484C13.5542 21.6515 13.3018 21.903 12.9982 22.0779C12.6946 22.2528 12.3504 22.3448 12 22.3448C11.6496 22.3448 11.3054 22.2528 11.0018 22.0779C10.6982 21.903 10.4458 21.6515 10.27 21.3484" stroke="white" stroke-width="2" stroke-linecap="round" stroke-linejoin="round"/>
</svg>
