<svg width="20" height="20" viewBox="0 0 24 25" fill="none" xmlns="http://www.w3.org/2000/svg">
<path d="M24 15.7856V18.3521H22.5V16.4185L21.2226 15.1294L21.2578 15.0942C20.9453 15.2661 20.5976 15.3521 20.2148 15.3521C19.8711 15.3521 19.5546 15.2817 19.2656 15.1411L18 16.4185V18.3521H16.5V15.7856L18.1992 14.0981L18.164 14.0161L15.2226 7.43018L10.4414 12.3638C10.457 12.4888 10.4687 12.6099 10.4765 12.7271C10.4843 12.8442 10.4921 12.9692 10.5 13.1021V22.8521H12V24.3521H-3.8147e-05V22.8521H1.49996V13.1021C1.49996 12.5083 1.60934 11.9497 1.82809 11.4263C2.04684 10.9028 2.34371 10.438 2.71871 10.0317C3.09371 9.62549 3.53902 9.29736 4.05465 9.04736C4.57027 8.79736 5.12496 8.65283 5.71871 8.61377L12.8437 1.26611C13.125 0.969238 13.4531 0.742676 13.8281 0.586426C14.2031 0.430176 14.5937 0.352051 15 0.352051C15.2734 0.352051 15.5468 0.391113 15.8203 0.469238C16.0937 0.547363 16.3554 0.664551 16.6054 0.820801C16.8554 0.977051 17.0781 1.15674 17.2734 1.35986C17.4687 1.56299 17.625 1.79736 17.7421 2.06299L22.2421 12.1177C22.3125 12.2739 22.3632 12.4341 22.3945 12.5981C22.4257 12.7622 22.4414 12.9263 22.4414 13.0903C22.4414 13.2778 22.4218 13.4614 22.3828 13.6411C22.3437 13.8208 22.2773 13.9966 22.1836 14.1685L22.2773 14.0747L24 15.7856ZM8.99996 22.8521V13.1021C8.99996 12.688 8.92184 12.3013 8.76559 11.9419C8.60934 11.5825 8.39449 11.2622 8.12106 10.981C7.84762 10.6997 7.53121 10.4849 7.17184 10.3364C6.81246 10.188 6.42184 10.1099 5.99996 10.1021C5.5859 10.1021 5.19918 10.1802 4.83981 10.3364C4.48043 10.4927 4.16012 10.7075 3.87887 10.981C3.59762 11.2544 3.38277 11.5708 3.23434 11.9302C3.0859 12.2896 3.00777 12.6802 2.99996 13.1021V22.8521H8.99996ZM7.54684 8.87158C8.03121 9.05127 8.47262 9.30518 8.87106 9.6333C9.26949 9.96143 9.60152 10.3481 9.86715 10.7935L16.0781 4.39502C16.3593 4.09814 16.5 3.75049 16.5 3.35205C16.5 3.14111 16.4609 2.9458 16.3828 2.76611C16.3046 2.58643 16.1992 2.43018 16.0664 2.29736C15.9336 2.16455 15.7734 2.05518 15.5859 1.96924C15.3984 1.8833 15.2031 1.84424 15 1.85205C14.5703 1.85205 14.2109 2.00439 13.9218 2.30908L7.54684 8.87158ZM17.4492 5.07471C17.3086 5.30127 17.1367 5.5083 16.9336 5.6958C16.7304 5.8833 16.5351 6.07471 16.3476 6.27002L18.6562 11.438L20.0273 10.8521L17.4492 5.07471ZM20.2148 13.8521C20.4414 13.8521 20.6211 13.7778 20.7539 13.6294C20.8867 13.481 20.9531 13.3013 20.9531 13.0903C20.9531 12.9341 20.9179 12.7856 20.8476 12.645C20.7773 12.5044 20.707 12.3638 20.6367 12.2231L19.2656 12.8091C19.3125 12.9263 19.3593 13.0474 19.4062 13.1724C19.4531 13.2974 19.5117 13.4106 19.582 13.5122C19.6523 13.6138 19.7343 13.6958 19.8281 13.7583C19.9218 13.8208 20.0507 13.8521 20.2148 13.8521ZM5.99996 12.3521C6.2109 12.3521 6.40621 12.3911 6.5859 12.4692C6.76559 12.5474 6.92184 12.6528 7.05465 12.7856C7.18746 12.9185 7.29684 13.0786 7.38277 13.2661C7.46871 13.4536 7.50777 13.6489 7.49996 13.8521C7.49996 14.063 7.4609 14.2583 7.38277 14.438C7.30465 14.6177 7.19918 14.7739 7.06637 14.9067C6.93356 15.0396 6.7734 15.1489 6.5859 15.2349C6.3984 15.3208 6.20309 15.3599 5.99996 15.3521C5.78902 15.3521 5.59371 15.313 5.41402 15.2349C5.23434 15.1567 5.07809 15.0513 4.94527 14.9185C4.81246 14.7856 4.70309 14.6255 4.61715 14.438C4.53121 14.2505 4.49215 14.0552 4.49996 13.8521C4.49996 13.6411 4.53902 13.4458 4.61715 13.2661C4.69527 13.0864 4.80074 12.9302 4.93356 12.7974C5.06637 12.6646 5.22652 12.5552 5.41402 12.4692C5.60152 12.3833 5.79684 12.3442 5.99996 12.3521Z" fill="white"/>
</svg>
