<svg width="20" height="20" viewBox="0 0 24 25" fill="none" xmlns="http://www.w3.org/2000/svg">
<path d="M11.9999 14.6182C13.2959 14.6182 14.3465 13.5676 14.3465 12.2716C14.3465 10.9757 13.2959 9.92505 11.9999 9.92505C10.704 9.92505 9.65335 10.9757 9.65335 12.2716C9.65335 13.5676 10.704 14.6182 11.9999 14.6182Z" stroke="white" stroke-width="2" stroke-linecap="round" stroke-linejoin="round"/>
<path d="M18.0545 14.7263C17.9456 14.9731 17.9131 15.2468 17.9613 15.5122C18.0094 15.7776 18.1359 16.0225 18.3245 16.2154L18.3736 16.2645C18.5258 16.4164 18.6465 16.5969 18.7288 16.7956C18.8112 16.9942 18.8536 17.2071 18.8536 17.4222C18.8536 17.6372 18.8112 17.8502 18.7288 18.0488C18.6465 18.2475 18.5258 18.4279 18.3736 18.5799C18.2217 18.7321 18.0412 18.8527 17.8425 18.9351C17.6439 19.0174 17.431 19.0598 17.2159 19.0598C17.0009 19.0598 16.7879 19.0174 16.5893 18.9351C16.3906 18.8527 16.2102 18.7321 16.0582 18.5799L16.0091 18.5308C15.8163 18.3422 15.5714 18.2157 15.3059 18.1675C15.0405 18.1194 14.7668 18.1519 14.52 18.2608C14.278 18.3645 14.0716 18.5367 13.9263 18.7563C13.7809 18.9758 13.7029 19.233 13.7018 19.4963V19.6354C13.7018 20.0694 13.5294 20.4856 13.2225 20.7924C12.9157 21.0993 12.4994 21.2717 12.0655 21.2717C11.6315 21.2717 11.2152 21.0993 10.9084 20.7924C10.6015 20.4856 10.4291 20.0694 10.4291 19.6354V19.5617C10.4228 19.2909 10.3351 19.0283 10.1775 18.8079C10.0199 18.5876 9.79969 18.4198 9.54545 18.3263C9.29868 18.2174 9.02493 18.1849 8.75952 18.233C8.4941 18.2811 8.24919 18.4077 8.05636 18.5963L8.00727 18.6454C7.8553 18.7975 7.67483 18.9182 7.47617 19.0006C7.27752 19.0829 7.06459 19.1253 6.84955 19.1253C6.6345 19.1253 6.42157 19.0829 6.22292 19.0006C6.02426 18.9182 5.84379 18.7975 5.69182 18.6454C5.53967 18.4934 5.41898 18.3129 5.33663 18.1143C5.25428 17.9156 5.21189 17.7027 5.21189 17.4876C5.21189 17.2726 5.25428 17.0597 5.33663 16.861C5.41898 16.6624 5.53967 16.4819 5.69182 16.3299L5.74091 16.2808C5.92953 16.088 6.05606 15.8431 6.10419 15.5777C6.15231 15.3123 6.11982 15.0385 6.01091 14.7917C5.90719 14.5497 5.73498 14.3434 5.51547 14.198C5.29596 14.0526 5.03873 13.9746 4.77545 13.9735H4.63636C4.20237 13.9735 3.78616 13.8011 3.47928 13.4943C3.1724 13.1874 3 12.7712 3 12.3372C3 11.9032 3.1724 11.487 3.47928 11.1801C3.78616 10.8732 4.20237 10.7008 4.63636 10.7008H4.71C4.98081 10.6945 5.24346 10.6068 5.46379 10.4492C5.68412 10.2916 5.85195 10.0714 5.94545 9.81718C6.05437 9.57041 6.08686 9.29666 6.03873 9.03125C5.99061 8.76583 5.86408 8.52092 5.67545 8.32809L5.62636 8.279C5.47422 8.12703 5.35352 7.94655 5.27118 7.7479C5.18883 7.54925 5.14644 7.33632 5.14644 7.12127C5.14644 6.90623 5.18883 6.6933 5.27118 6.49464C5.35352 6.29599 5.47422 6.11552 5.62636 5.96355C5.77834 5.8114 5.95881 5.69071 6.15746 5.60836C6.35611 5.52601 6.56905 5.48362 6.78409 5.48362C6.99913 5.48362 7.21207 5.52601 7.41072 5.60836C7.60937 5.69071 7.78984 5.8114 7.94182 5.96355L7.99091 6.01264C8.18374 6.20126 8.42865 6.32779 8.69406 6.37591C8.95948 6.42404 9.23322 6.39155 9.48 6.28264H9.54545C9.78745 6.17892 9.99383 6.00671 10.1392 5.7872C10.2846 5.56769 10.3626 5.31046 10.3636 5.04718V4.90809C10.3636 4.4741 10.536 4.05789 10.8429 3.75101C11.1498 3.44413 11.566 3.27173 12 3.27173C12.434 3.27173 12.8502 3.44413 13.1571 3.75101C13.464 4.05789 13.6364 4.4741 13.6364 4.90809V4.98173C13.6374 5.24501 13.7154 5.50224 13.8608 5.72175C14.0062 5.94126 14.2126 6.11347 14.4545 6.21718C14.7013 6.3261 14.9751 6.35858 15.2405 6.31046C15.5059 6.26233 15.7508 6.1358 15.9436 5.94718L15.9927 5.89809C16.1447 5.74595 16.3252 5.62525 16.5238 5.5429C16.7225 5.46055 16.9354 5.41817 17.1505 5.41817C17.3655 5.41817 17.5784 5.46055 17.7771 5.5429C17.9757 5.62525 18.1562 5.74595 18.3082 5.89809C18.4603 6.05007 18.581 6.23054 18.6634 6.42919C18.7457 6.62784 18.7881 6.84078 18.7881 7.05582C18.7881 7.27086 18.7457 7.4838 18.6634 7.68245C18.581 7.8811 18.4603 8.06157 18.3082 8.21355L18.2591 8.26264C18.0705 8.45547 17.9439 8.70038 17.8958 8.96579C17.8477 9.23121 17.8802 9.50495 17.9891 9.75173V9.81718C18.0928 10.0592 18.265 10.2656 18.4845 10.4109C18.704 10.5563 18.9613 10.6343 19.2245 10.6354H19.3636C19.7976 10.6354 20.2138 10.8078 20.5207 11.1146C20.8276 11.4215 21 11.8377 21 12.2717C21 12.7057 20.8276 13.1219 20.5207 13.4288C20.2138 13.7357 19.7976 13.9081 19.3636 13.9081H19.29C19.0267 13.9091 18.7695 13.9872 18.55 14.1325C18.3305 14.2779 18.1583 14.4843 18.0545 14.7263V14.7263Z" stroke="white" stroke-width="2" stroke-linecap="round" stroke-linejoin="round"/>
</svg>
