<svg width="20" height="20" viewBox="0 0 24 25" fill="none" xmlns="http://www.w3.org/2000/svg">
<path d="M15.5559 7.91553C15.5559 7.81561 15.4742 7.73387 15.3743 7.73387H14.1367C14.0686 7.73387 14.005 7.77247 13.9755 7.83378L12.0522 11.6667H11.9773L10.054 7.83378C10.0389 7.80389 10.0159 7.77874 9.98745 7.76111C9.959 7.74348 9.92623 7.73405 9.89276 7.73387H8.62797C8.59846 7.73387 8.56894 7.74068 8.54169 7.75658C8.45313 7.80426 8.42134 7.91553 8.46903 8.00181L10.8283 12.3525H9.53399C9.43408 12.3525 9.35233 12.4342 9.35233 12.5342V13.1495C9.35233 13.2494 9.43408 13.3312 9.53399 13.3312H11.2597V14.2168H9.53399C9.43408 14.2168 9.35233 14.2985 9.35233 14.3984V15.0138C9.35233 15.1137 9.43408 15.1954 9.53399 15.1954H11.2597V16.6351C11.2597 16.735 11.3415 16.8167 11.4414 16.8167H12.5745C12.6744 16.8167 12.7561 16.735 12.7561 16.6351V15.1932H14.4887C14.5886 15.1932 14.6703 15.1114 14.6703 15.0115V14.3961C14.6703 14.2962 14.5886 14.2145 14.4887 14.2145H12.7561V13.3289H14.4887C14.5886 13.3289 14.6703 13.2472 14.6703 13.1472V12.5319C14.6703 12.432 14.5886 12.3502 14.4887 12.3502H13.1808L15.5355 7.99954C15.5468 7.97456 15.5559 7.94504 15.5559 7.91553ZM3.95939 12.0982C4.00204 10.0287 4.84431 8.05605 6.30958 6.59397C7.04756 5.85599 7.90589 5.27469 8.86186 4.8705C9.85189 4.45269 10.9032 4.23924 11.9864 4.23924C13.0718 4.23924 14.1231 4.45042 15.1109 4.8705C16.0668 5.27469 16.9252 5.85599 17.6631 6.59397C17.8902 6.82104 18.1014 7.05947 18.2967 7.30698L17.1613 8.19482C17.1343 8.21575 17.1137 8.24388 17.1019 8.27598C17.0901 8.30809 17.0877 8.34286 17.0948 8.37631C17.1019 8.40976 17.1183 8.44052 17.1421 8.46505C17.1659 8.48958 17.1962 8.50689 17.2294 8.51499L20.7899 9.38468C20.9034 9.41193 21.0147 9.32564 21.0147 9.20983L21.0329 5.54263C21.0329 5.39049 20.858 5.30421 20.74 5.39958L19.6546 6.24882C17.8743 3.9713 15.1018 2.51123 11.9886 2.51123C6.66381 2.51123 2.33356 6.78244 2.23592 12.0891C2.23531 12.1133 2.23956 12.1374 2.24842 12.16C2.25728 12.1826 2.27056 12.2031 2.28749 12.2205C2.30442 12.2378 2.32465 12.2516 2.34699 12.261C2.36934 12.2705 2.39333 12.2753 2.41758 12.2753H3.78C3.87764 12.2753 3.95712 12.1958 3.95939 12.0982ZM21.5824 12.2753H20.22C20.1223 12.2753 20.0406 12.3548 20.0383 12.4524C19.9957 14.5219 19.1534 16.4945 17.6881 17.9566C16.9569 18.6909 16.0901 19.2762 15.1358 19.6801C14.1458 20.0979 13.0945 20.3113 12.0113 20.3113C10.9282 20.3113 9.8746 20.1002 8.88684 19.6801C7.93255 19.2762 7.06576 18.6909 6.33456 17.9566C6.10748 17.7295 5.89631 17.4911 5.70103 17.2436L6.83411 16.3558C6.86116 16.3348 6.88175 16.3067 6.89352 16.2746C6.90529 16.2425 6.90776 16.2077 6.90064 16.1743C6.89353 16.1408 6.87711 16.1101 6.85329 16.0855C6.82947 16.061 6.79921 16.0437 6.76599 16.0356L3.20551 15.1659C3.09198 15.1387 2.98071 15.2249 2.98071 15.3408L2.96255 19.0125C2.96255 19.1646 3.13739 19.2509 3.25547 19.1556L4.34087 18.3063C6.12565 20.5793 8.89819 22.0394 12.0113 22.0394C17.3362 22.0394 21.6664 17.7681 21.764 12.4615C21.7647 12.4373 21.7604 12.4131 21.7515 12.3906C21.7427 12.368 21.7294 12.3474 21.7125 12.3301C21.6955 12.3127 21.6753 12.299 21.653 12.2895C21.6306 12.2801 21.6066 12.2753 21.5824 12.2753Z" fill="white"/>
</svg>
